# xmcd
# 
# Track frame offsets:
#   300
#   13547
#   33289
# 
# Disc length: 734 seconds
# 
# Revision: 1
# Processed by: cddbd v1.5.2PL0 Copyright (c) Steve Scherf et al.
# Submitted via: Synapstar 1.0 
# 
DISCID=1802da03
DTITLE=Various Artist - NEW KARAOKE 10-20-10
DYEAR=1900
DGENRE=Country
TTITLE0=Trini Triggs - Straight Tequila
TTITLE1=Cross Canadian Ragweed - Cry Lonely
TTITLE2=Queens Of The Stone Age - No One Knows
EXTD=1994 Made in Belgium\nINDISC 2100842 MediaType: Karaoke CD+G Producer: Unknown
EXTT0=
EXTT1=
EXTT2=
PLAYORDER=
